<svg xmlns="http://www.w3.org/2000/svg" width="36" height="24" viewBox="0 0 36 24" fill="none">
  <rect width="35" height="23" x=".5" y=".5" fill="#fff" stroke="#F2F2F2" rx="2.5" />
  <path fill="url(#paint0_linear)" d="M8 5h20v14H8z" />
  <path fill="url(#paint1_radial)" d="M8 5h20v14H8V5z" />
  <path fill="#fff" fill-rule="evenodd" d="M14.352 8.509c-2.009.11-3.307 1.42-3.35 3.383-.051 2.258 1.41 3.653 3.778 3.607 1.445-.028 2.508-.588 3.113-1.641.248-.432.443-1.126.445-1.583v-.066h-3.549v-.417h3.553l-.01-.128c-.147-2.043-1.708-3.28-3.98-3.155zm4.39 1.734v1.55l2.456-.005c2.754-.005 2.582.002 2.866-.106 1.213-.457 1.258-2.328.069-2.843-.326-.141-.224-.136-2.982-.142l-2.41-.005v1.55zm0 3.516v1.55l2.456-.005c2.626-.005 2.498-.002 2.757-.07 1.34-.355 1.404-2.46.09-2.924-.285-.1-.28-.1-2.924-.1h-2.38v1.55z" clip-rule="evenodd" />
  <defs>
    <radialGradient id="paint1_radial" cx="0" cy="0" r="1" gradientTransform="matrix(6.49998 -11.49996 16.42856 9.28571 13.5 21)" gradientUnits="userSpaceOnUse">
      <stop stop-color="#0EA74A" />
      <stop offset=".81" stop-opacity="0" />
    </radialGradient>
    <linearGradient id="paint0_linear" x1="16.5" x2="28" y1="18.5" y2="4" gradientUnits="userSpaceOnUse">
      <stop offset="0" stop-color="#1EB3EB" />
      <stop offset="0" stop-color="#1EB3EB" />
      <stop offset="1" stop-color="#002153" />
    </linearGradient>
  </defs>
</svg>
