<svg xmlns="http://www.w3.org/2000/svg" width="36" height="24" viewBox="0 0 36 24" fill="none">
  <rect x="0.5" y="0.5" width="35" height="23" rx="2.5" fill="white" stroke="#F2F2F2"/>
  <path d="M27.5929 19.7754V19.817H27.6302C27.6385 19.817 27.6456 19.815 27.6507 19.8118C27.6554 19.8086 27.6581 19.8029 27.6581 19.796C27.6581 19.7892 27.6554 19.7839 27.6507 19.7807C27.6456 19.777 27.6385 19.7754 27.6302 19.7754H27.5929ZM27.6306 19.7463C27.6499 19.7463 27.6648 19.7508 27.6754 19.7597C27.686 19.7685 27.6911 19.7807 27.6911 19.796C27.6911 19.809 27.6872 19.8195 27.6786 19.828C27.6703 19.836 27.6585 19.8413 27.6428 19.8433L27.6923 19.9019H27.6538L27.6078 19.8437H27.5929V19.9019H27.5607V19.7463H27.6306ZM27.6208 19.9557C27.6385 19.9557 27.655 19.952 27.6699 19.9451C27.6852 19.9383 27.6986 19.929 27.71 19.9173C27.7214 19.9055 27.7304 19.8918 27.7371 19.8756C27.7434 19.8599 27.7469 19.8429 27.7469 19.8247C27.7469 19.8065 27.7434 19.7896 27.7371 19.7738C27.7304 19.758 27.7214 19.7439 27.71 19.7322C27.6986 19.7205 27.6852 19.7112 27.6699 19.7043C27.655 19.6978 27.6385 19.6946 27.6208 19.6946C27.6031 19.6946 27.5862 19.6978 27.5709 19.7043C27.5552 19.7112 27.5414 19.7205 27.53 19.7322C27.5186 19.7439 27.5096 19.758 27.5033 19.7738C27.4966 19.7896 27.4935 19.8065 27.4935 19.8247C27.4935 19.8429 27.4966 19.8599 27.5033 19.8756C27.5096 19.8918 27.5186 19.9055 27.53 19.9173C27.5414 19.929 27.5552 19.9383 27.5709 19.9451C27.5862 19.952 27.6031 19.9557 27.6208 19.9557ZM27.6208 19.657C27.644 19.657 27.6652 19.6615 27.6856 19.6703C27.7057 19.6788 27.723 19.691 27.7383 19.7063C27.7532 19.7213 27.765 19.739 27.7737 19.7597C27.7823 19.7799 27.7866 19.8017 27.7866 19.8247C27.7866 19.8478 27.7823 19.8696 27.7737 19.8898C27.765 19.91 27.7532 19.9278 27.7383 19.9431C27.723 19.9581 27.7057 19.9702 27.6856 19.9791C27.6652 19.988 27.644 19.9924 27.6208 19.9924C27.5972 19.9924 27.5756 19.988 27.5552 19.9791C27.5347 19.9702 27.5171 19.9581 27.5021 19.9431C27.4872 19.9278 27.4754 19.91 27.4668 19.8898C27.4581 19.8696 27.4538 19.8478 27.4538 19.8247C27.4538 19.8017 27.4581 19.7799 27.4668 19.7597C27.4754 19.739 27.4872 19.7213 27.5021 19.7063C27.5171 19.691 27.5347 19.6788 27.5552 19.6703C27.5756 19.6615 27.5972 19.657 27.6208 19.657ZM12.3106 19.0577C12.3106 18.7611 12.4996 18.5174 12.8085 18.5174C13.1036 18.5174 13.3028 18.7506 13.3028 19.0577C13.3028 19.3648 13.1036 19.598 12.8085 19.598C12.4996 19.598 12.3106 19.3543 12.3106 19.0577ZM13.6392 19.0577V18.2139H13.2824V18.4188C13.1692 18.2668 12.9975 18.1714 12.7641 18.1714C12.3039 18.1714 11.9432 18.5424 11.9432 19.0577C11.9432 19.5734 12.3039 19.9439 12.7641 19.9439C12.9975 19.9439 13.1692 19.8486 13.2824 19.6966V19.9015H13.6392V19.0577ZM25.6968 19.0577C25.6968 18.7611 25.8859 18.5174 26.1947 18.5174C26.4902 18.5174 26.6891 18.7506 26.6891 19.0577C26.6891 19.3648 26.4902 19.598 26.1947 19.598C25.8859 19.598 25.6968 19.3543 25.6968 19.0577ZM27.0259 19.0577V17.5362H26.6686V18.4188C26.5555 18.2668 26.3837 18.1714 26.1503 18.1714C25.6902 18.1714 25.3294 18.5424 25.3294 19.0577C25.3294 19.5734 25.6902 19.9439 26.1503 19.9439C26.3837 19.9439 26.5555 19.8486 26.6686 19.6966V19.9015H27.0259V19.0577ZM18.0683 18.5C18.2982 18.5 18.4459 18.6483 18.4836 18.9094H17.6321C17.6702 18.6657 17.814 18.5 18.0683 18.5ZM18.0753 18.1714C17.5944 18.1714 17.258 18.5315 17.258 19.0577C17.258 19.5944 17.6081 19.9439 18.0993 19.9439C18.3465 19.9439 18.5728 19.8805 18.7721 19.7075L18.5972 19.4355C18.4597 19.5483 18.2844 19.6121 18.1197 19.6121C17.8899 19.6121 17.6804 19.5026 17.6289 19.1987H18.8475C18.8511 19.1531 18.8546 19.107 18.8546 19.0577C18.8511 18.5315 18.5351 18.1714 18.0753 18.1714ZM22.3838 19.0577C22.3838 18.7611 22.5728 18.5174 22.8817 18.5174C23.1768 18.5174 23.376 18.7506 23.376 19.0577C23.376 19.3648 23.1768 19.598 22.8817 19.598C22.5728 19.598 22.3838 19.3543 22.3838 19.0577ZM23.7124 19.0577V18.2139H23.3556V18.4188C23.242 18.2668 23.0707 18.1714 22.8373 18.1714C22.3771 18.1714 22.0164 18.5424 22.0164 19.0577C22.0164 19.5734 22.3771 19.9439 22.8373 19.9439C23.0707 19.9439 23.242 19.8486 23.3556 19.6966V19.9015H23.7124V19.0577ZM20.3687 19.0577C20.3687 19.5697 20.7153 19.9439 21.2442 19.9439C21.4914 19.9439 21.656 19.8874 21.8344 19.7427L21.6631 19.4461C21.5291 19.5451 21.3884 19.598 21.2336 19.598C20.9487 19.5944 20.7392 19.3826 20.7392 19.0577C20.7392 18.7328 20.9487 18.521 21.2336 18.5174C21.3884 18.5174 21.5291 18.5703 21.6631 18.6693L21.8344 18.3727C21.656 18.228 21.4914 18.1714 21.2442 18.1714C20.7153 18.1714 20.3687 18.5457 20.3687 19.0577ZM24.9691 18.1714C24.7632 18.1714 24.6292 18.2704 24.5364 18.4188V18.2139H24.1828V19.9015H24.54V18.9554C24.54 18.6762 24.6567 18.521 24.8901 18.521C24.9624 18.521 25.0379 18.5315 25.1133 18.5634L25.2233 18.2175C25.1443 18.1856 25.0414 18.1714 24.9691 18.1714ZM15.404 18.348C15.2323 18.2317 14.9957 18.1714 14.7348 18.1714C14.319 18.1714 14.0514 18.3763 14.0514 18.7118C14.0514 18.987 14.2506 19.1567 14.6177 19.2096L14.7862 19.2343C14.9819 19.2626 15.0743 19.3155 15.0743 19.4109C15.0743 19.5414 14.9438 19.6158 14.7002 19.6158C14.453 19.6158 14.2746 19.5346 14.1544 19.4392L13.9862 19.7249C14.1819 19.8732 14.429 19.9439 14.6967 19.9439C15.1706 19.9439 15.4452 19.7144 15.4452 19.3931C15.4452 19.0965 15.2291 18.9413 14.8719 18.8884L14.7037 18.8633C14.5493 18.8423 14.4255 18.8108 14.4255 18.6976C14.4255 18.5739 14.5422 18.5 14.7379 18.5C14.9474 18.5 15.1501 18.5812 15.2496 18.6447L15.404 18.348ZM20.0079 18.1714C19.802 18.1714 19.668 18.2704 19.5757 18.4188V18.2139H19.222V19.9015H19.5788V18.9554C19.5788 18.6762 19.6955 18.521 19.9289 18.521C20.0013 18.521 20.0767 18.5315 20.1522 18.5634L20.2622 18.2175C20.1832 18.1856 20.0802 18.1714 20.0079 18.1714ZM16.9629 18.2139H16.3793V17.7018H16.0186V18.2139H15.6857V18.5493H16.0186V19.3192C16.0186 19.7108 16.1663 19.9439 16.5884 19.9439C16.7432 19.9439 16.9216 19.8946 17.0348 19.8134L16.9318 19.499C16.8253 19.5624 16.7086 19.5944 16.6159 19.5944C16.4375 19.5944 16.3793 19.4812 16.3793 19.3119V18.5493H16.9629V18.2139ZM11.6276 19.9015V18.8423C11.6276 18.4434 11.3804 18.1751 10.982 18.1714C10.7725 18.1678 10.5564 18.2349 10.4051 18.4717C10.2919 18.2846 10.1135 18.1714 9.86282 18.1714C9.68756 18.1714 9.51623 18.2244 9.38223 18.422V18.2139H9.02502V19.9015H9.38537V18.966C9.38537 18.673 9.54334 18.5174 9.78737 18.5174C10.0243 18.5174 10.1442 18.6762 10.1442 18.9623V19.9015H10.5049V18.966C10.5049 18.673 10.6696 18.5174 10.9065 18.5174C11.1502 18.5174 11.2669 18.6762 11.2669 18.9623V19.9015H11.6276Z" fill="#231F20"/>
  <path d="M27.813 14.289V14.0425H27.7505L27.6782 14.2118L27.6063 14.0425H27.5434V14.289H27.5878V14.1031L27.6554 14.2635H27.7014L27.769 14.1027V14.289H27.813ZM27.4165 14.289V14.0845H27.4966V14.0429H27.2923V14.0845H27.3725V14.289H27.4165Z" fill="#F79410"/>
  <path d="M20.7082 15.3494H15.3004V5.35455H20.7082V15.3494Z" fill="#FF5F00"/>
  <path d="M15.6468 10.3512C15.6468 8.32369 16.5699 6.51765 18.0073 5.35377C16.9562 4.50268 15.6295 3.99469 14.1878 3.99469C10.7745 3.99469 8.00763 6.84055 8.00763 10.3512C8.00763 13.8618 10.7745 16.7077 14.1878 16.7077C15.6295 16.7077 16.9562 16.1997 18.0073 15.3486C16.5699 14.1847 15.6468 12.3787 15.6468 10.3512Z" fill="#EB001B"/>
  <path d="M28.0016 10.3512C28.0016 13.8618 25.2347 16.7077 21.8215 16.7077C20.3797 16.7077 19.053 16.1997 18.0015 15.3486C19.4393 14.1847 20.3624 12.3787 20.3624 10.3512C20.3624 8.32369 19.4393 6.51765 18.0015 5.35377C19.053 4.50268 20.3797 3.99469 21.8215 3.99469C25.2347 3.99469 28.0016 6.84055 28.0016 10.3512Z" fill="#F79E1B"/>
  <path d="M27.5929 19.7754V19.817H27.6302C27.6385 19.817 27.6456 19.815 27.6507 19.8117C27.6554 19.8085 27.6581 19.8028 27.6581 19.796C27.6581 19.7891 27.6554 19.7838 27.6507 19.7806C27.6456 19.777 27.6385 19.7754 27.6302 19.7754H27.5929ZM27.6306 19.7463C27.6499 19.7463 27.6648 19.7507 27.6754 19.7596C27.686 19.7685 27.6911 19.7806 27.6911 19.796C27.6911 19.8089 27.6872 19.8194 27.6786 19.8279C27.6703 19.836 27.6585 19.8412 27.6428 19.8432L27.6923 19.9018H27.6538L27.6078 19.8437H27.5929V19.9018H27.5607V19.7463H27.6306ZM27.6208 19.9556C27.6385 19.9556 27.655 19.952 27.6699 19.9451C27.6852 19.9382 27.6986 19.9289 27.71 19.9172C27.7214 19.9055 27.7304 19.8917 27.7371 19.8756C27.7434 19.8598 27.7469 19.8428 27.7469 19.8247C27.7469 19.8065 27.7434 19.7895 27.7371 19.7737C27.7304 19.758 27.7214 19.7438 27.71 19.7321C27.6986 19.7204 27.6852 19.7111 27.6699 19.7042C27.655 19.6978 27.6385 19.6945 27.6208 19.6945C27.6031 19.6945 27.5862 19.6978 27.5709 19.7042C27.5552 19.7111 27.5414 19.7204 27.53 19.7321C27.5186 19.7438 27.5096 19.758 27.5033 19.7737C27.4966 19.7895 27.4935 19.8065 27.4935 19.8247C27.4935 19.8428 27.4966 19.8598 27.5033 19.8756C27.5096 19.8917 27.5186 19.9055 27.53 19.9172C27.5414 19.9289 27.5552 19.9382 27.5709 19.9451C27.5862 19.952 27.6031 19.9556 27.6208 19.9556ZM27.6208 19.6569C27.644 19.6569 27.6652 19.6614 27.6856 19.6703C27.7057 19.6788 27.723 19.6909 27.7383 19.7062C27.7532 19.7212 27.765 19.739 27.7737 19.7596C27.7823 19.7798 27.7866 19.8016 27.7866 19.8247C27.7866 19.8477 27.7823 19.8695 27.7737 19.8897C27.765 19.9099 27.7532 19.9277 27.7383 19.9431C27.723 19.958 27.7057 19.9701 27.6856 19.979C27.6652 19.9879 27.644 19.9924 27.6208 19.9924C27.5972 19.9924 27.5756 19.9879 27.5552 19.979C27.5347 19.9701 27.5171 19.958 27.5021 19.9431C27.4872 19.9277 27.4754 19.9099 27.4668 19.8897C27.4581 19.8695 27.4538 19.8477 27.4538 19.8247C27.4538 19.8016 27.4581 19.7798 27.4668 19.7596C27.4754 19.739 27.4872 19.7212 27.5021 19.7062C27.5171 19.6909 27.5347 19.6788 27.5552 19.6703C27.5756 19.6614 27.5972 19.6569 27.6208 19.6569ZM12.3106 19.0576C12.3106 18.761 12.4996 18.5173 12.8085 18.5173C13.1036 18.5173 13.3028 18.7505 13.3028 19.0576C13.3028 19.3648 13.1036 19.5979 12.8085 19.5979C12.4996 19.5979 12.3106 19.3543 12.3106 19.0576ZM13.6392 19.0576V18.2138H13.2824V18.4187C13.1692 18.2668 12.9975 18.1714 12.7641 18.1714C12.3039 18.1714 11.9432 18.5424 11.9432 19.0576C11.9432 19.5733 12.3039 19.9439 12.7641 19.9439C12.9975 19.9439 13.1692 19.8485 13.2824 19.6966V19.9014H13.6392V19.0576ZM25.6968 19.0576C25.6968 18.761 25.8859 18.5173 26.1947 18.5173C26.4902 18.5173 26.6891 18.7505 26.6891 19.0576C26.6891 19.3648 26.4902 19.5979 26.1947 19.5979C25.8859 19.5979 25.6968 19.3543 25.6968 19.0576ZM27.0259 19.0576V17.5361H26.6686V18.4187C26.5555 18.2668 26.3837 18.1714 26.1503 18.1714C25.6902 18.1714 25.3294 18.5424 25.3294 19.0576C25.3294 19.5733 25.6902 19.9439 26.1503 19.9439C26.3837 19.9439 26.5555 19.8485 26.6686 19.6966V19.9014H27.0259V19.0576ZM18.0683 18.4999C18.2982 18.4999 18.4459 18.6482 18.4836 18.9093H17.6321C17.6702 18.6656 17.814 18.4999 18.0683 18.4999ZM18.0753 18.1714C17.5944 18.1714 17.258 18.5315 17.258 19.0576C17.258 19.5943 17.6081 19.9439 18.0993 19.9439C18.3465 19.9439 18.5728 19.8804 18.7721 19.7075L18.5972 19.4355C18.4597 19.5482 18.2844 19.6121 18.1197 19.6121C17.8899 19.6121 17.6804 19.5026 17.6289 19.1987H18.8475C18.8511 19.153 18.8546 19.1069 18.8546 19.0576C18.8511 18.5315 18.5351 18.1714 18.0753 18.1714ZM22.3838 19.0576C22.3838 18.761 22.5728 18.5173 22.8817 18.5173C23.1768 18.5173 23.376 18.7505 23.376 19.0576C23.376 19.3648 23.1768 19.5979 22.8817 19.5979C22.5728 19.5979 22.3838 19.3543 22.3838 19.0576ZM23.7124 19.0576V18.2138H23.3556V18.4187C23.242 18.2668 23.0707 18.1714 22.8373 18.1714C22.3771 18.1714 22.0164 18.5424 22.0164 19.0576C22.0164 19.5733 22.3771 19.9439 22.8373 19.9439C23.0707 19.9439 23.242 19.8485 23.3556 19.6966V19.9014H23.7124V19.0576ZM20.3687 19.0576C20.3687 19.5697 20.7153 19.9439 21.2442 19.9439C21.4914 19.9439 21.656 19.8873 21.8344 19.7426L21.6631 19.446C21.5291 19.545 21.3884 19.5979 21.2336 19.5979C20.9487 19.5943 20.7392 19.3825 20.7392 19.0576C20.7392 18.7327 20.9487 18.5209 21.2336 18.5173C21.3884 18.5173 21.5291 18.5703 21.6631 18.6693L21.8344 18.3726C21.656 18.228 21.4914 18.1714 21.2442 18.1714C20.7153 18.1714 20.3687 18.5456 20.3687 19.0576ZM24.9691 18.1714C24.7632 18.1714 24.6292 18.2704 24.5364 18.4187V18.2138H24.1828V19.9014H24.54V18.9554C24.54 18.6761 24.6567 18.5209 24.8901 18.5209C24.9624 18.5209 25.0379 18.5315 25.1133 18.5634L25.2233 18.2174C25.1443 18.1855 25.0414 18.1714 24.9691 18.1714ZM15.404 18.348C15.2323 18.2316 14.9957 18.1714 14.7348 18.1714C14.319 18.1714 14.0514 18.3763 14.0514 18.7117C14.0514 18.9869 14.2506 19.1566 14.6177 19.2096L14.7862 19.2342C14.9819 19.2625 15.0743 19.3155 15.0743 19.4108C15.0743 19.5414 14.9438 19.6157 14.7002 19.6157C14.453 19.6157 14.2746 19.5345 14.1544 19.4391L13.9862 19.7248C14.1819 19.8732 14.429 19.9439 14.6967 19.9439C15.1706 19.9439 15.4452 19.7143 15.4452 19.3931C15.4452 19.0964 15.2291 18.9412 14.8719 18.8883L14.7037 18.8632C14.5493 18.8422 14.4255 18.8107 14.4255 18.6975C14.4255 18.5739 14.5422 18.4999 14.7379 18.4999C14.9474 18.4999 15.1501 18.5812 15.2496 18.6446L15.404 18.348ZM20.0079 18.1714C19.802 18.1714 19.668 18.2704 19.5757 18.4187V18.2138H19.222V19.9014H19.5788V18.9554C19.5788 18.6761 19.6955 18.5209 19.9289 18.5209C20.0013 18.5209 20.0767 18.5315 20.1522 18.5634L20.2622 18.2174C20.1832 18.1855 20.0802 18.1714 20.0079 18.1714ZM16.9629 18.2138H16.3793V17.7018H16.0186V18.2138H15.6857V18.5492H16.0186V19.3191C16.0186 19.7107 16.1663 19.9439 16.5884 19.9439C16.7432 19.9439 16.9216 19.8946 17.0348 19.8133L16.9318 19.4989C16.8253 19.5624 16.7086 19.5943 16.6159 19.5943C16.4375 19.5943 16.3793 19.4812 16.3793 19.3118V18.5492H16.9629V18.2138ZM11.6276 19.9014V18.8422C11.6276 18.4434 11.3804 18.175 10.982 18.1714C10.7725 18.1677 10.5564 18.2348 10.4051 18.4716C10.2919 18.2845 10.1135 18.1714 9.86282 18.1714C9.68756 18.1714 9.51623 18.2243 9.38223 18.4219V18.2138H9.02502V19.9014H9.38537V18.9659C9.38537 18.6729 9.54334 18.5173 9.78737 18.5173C10.0243 18.5173 10.1442 18.6761 10.1442 18.9623V19.9014H10.5049V18.9659C10.5049 18.6729 10.6696 18.5173 10.9065 18.5173C11.1502 18.5173 11.2669 18.6761 11.2669 18.9623V19.9014H11.6276Z" fill="#231F20"/>
  <path d="M27.813 14.2889V14.0424H27.7505L27.6782 14.2118L27.6063 14.0424H27.5434V14.2889H27.5878V14.103L27.6554 14.2635H27.7014L27.769 14.1026V14.2889H27.813ZM27.4165 14.2889V14.0844H27.4966V14.0428H27.2923V14.0844H27.3725V14.2889H27.4165Z" fill="#F79410"/>
  <path d="M20.7082 15.3493H15.3004V5.35449H20.7082V15.3493Z" fill="#FF5F00"/>
  <path d="M15.6468 10.3511C15.6468 8.32363 16.5699 6.51759 18.0073 5.35371C16.9562 4.50261 15.6295 3.99463 14.1878 3.99463C10.7745 3.99463 8.00763 6.84049 8.00763 10.3511C8.00763 13.8618 10.7745 16.7076 14.1878 16.7076C15.6295 16.7076 16.9562 16.1997 18.0073 15.3486C16.5699 14.1847 15.6468 12.3786 15.6468 10.3511Z" fill="#EB001B"/>
  <path d="M28.0016 10.3511C28.0016 13.8618 25.2347 16.7076 21.8215 16.7076C20.3797 16.7076 19.053 16.1997 18.0015 15.3486C19.4393 14.1847 20.3624 12.3786 20.3624 10.3511C20.3624 8.32363 19.4393 6.51759 18.0015 5.35371C19.053 4.50261 20.3797 3.99463 21.8215 3.99463C25.2347 3.99463 28.0016 6.84049 28.0016 10.3511Z" fill="#F79E1B"/>
</svg>
