<svg xmlns="http://www.w3.org/2000/svg" width="36" height="24" viewBox="0 0 36 24" fill="none">
  <rect width="35" height="23" x=".5" y=".5" fill="#fff" stroke="#F2F2F2" rx="2.5"/>
  <path fill="#8BBD06" d="M9.11 14.16c-1.1 0-2.01-.9-2.01-2.05 0-1.14.9-2.05 2.01-2.05 1.1 0 2.01.9 2.01 2.05s-.9 2.05-2 2.05zm0-5.16A3.08 3.08 0 006 12.11a3.08 3.08 0 003.11 3.11c1.74 0 3.11-1.37 3.11-3.1A3.08 3.08 0 009.12 9zM25.13 12.03a3.03 3.03 0 00-3.02-3.02 3.03 3.03 0 00-3.03 3.1c0 .8.31 1.58.88 2.17.57.6 1.33.93 2.13.93.92 0 2.2-.44 2.82-1.69l.02-.04H23.7l-.01.01c-.33.4-.96.66-1.55.66-.76 0-1.67-.5-1.91-1.61h4.87l.03-.51zm-4.87-.48a1.9 1.9 0 011.84-1.49c.97 0 1.7.74 1.84 1.49h-3.68zM15.66 10.03c-1.1 0-1.66.59-1.66 1.75v3.43h-1.13V11.7a2.7 2.7 0 01.38-1.47c.3-.46 1-1.23 2.4-1.23s2.12.77 2.42 1.23c.25.41.36.85.37 1.47v3.51H17.3v-3.43c0-1.16-.55-1.75-1.65-1.75zM31 9l-2.39 5.78-.58 1.43-.33.79h-1.17l.9-2.22L25.02 9h1.24l1.78 4.35L29.8 9H31z"/>
</svg>
