<svg xmlns="http://www.w3.org/2000/svg" width="36" height="24" viewBox="0 0 36 24" fill="none">
  <rect width="35" height="23" x=".5" y=".5" fill="#fff" stroke="#F2F2F2" rx="2.5"/>
  <path fill="#00579F" d="M15.3 16.2h-2.1l1.3-8h2l-1.2 8zM22.9 8.3c-.4-.1-1-.3-1.9-.3-2 0-3.5 1.1-3.5 2.7 0 1.1 1 1.8 1.8 2.2.8.4 1.1.6 1.1 1 0 .5-.7.8-1.3.8-.8 0-1.3-.2-2-.5H17l-.3 1.7c.5.3 1.4.4 2.3.5 2.2 0 3.7-1.1 3.7-2.8 0-1-.6-1.6-1.8-2.2-.7-.4-1.2-.6-1.2-1s.4-.7 1.3-.7c.6 0 1.1.1 1.5.3h.2l.3-1.7zM25.7 13.4l.8-2.3.3-.8.2.7.5 2.4h-1.8zM28.3 8h-1.6c-.5 0-1 .2-1.1.7l-3.2 7.4h2.3L25 15h2.7l.2 1.2h2l-1.7-8zM11.4 8.1l-2 5.6-.3-1.2a6.2 6.2 0 00-2.9-3.3l1.9 7h2.2l3.3-8h-2.2z"/>
  <path fill="#FAA61A" d="M7.4 8.1H4v.2a7 7 0 015.1 4.2l-.7-3.7c-.1-.5-.5-.6-1-.7z"/>
</svg>
