<svg xmlns="http://www.w3.org/2000/svg" xmlns:xlink="http://www.w3.org/1999/xlink" width="150" zoomAndPan="magnify" viewBox="0 0 112.5 48.75" height="65" preserveAspectRatio="xMidYMid meet" version="1.0"><defs><clipPath id="id1"><path d="M 0.0390625 0 L 111.964844 0 L 111.964844 48.5 L 0.0390625 48.5 Z M 0.0390625 0 " clip-rule="nonzero"/></clipPath><clipPath id="id2"><path d="M 0.0390625 6.0625 L 29 6.0625 L 29 35 L 0.0390625 35 Z M 0.0390625 6.0625 " clip-rule="nonzero"/></clipPath><clipPath id="id3"><path d="M 69 16 L 87 16 L 87 42.789062 L 69 42.789062 Z M 69 16 " clip-rule="nonzero"/></clipPath><clipPath id="id4"><path d="M 95 16 L 111.964844 16 L 111.964844 35 L 95 35 Z M 95 16 " clip-rule="nonzero"/></clipPath></defs><g clip-path="url(#id1)"><path fill="rgb(100%, 100%, 100%)" d="M 0.0390625 0 L 112.460938 0 L 112.460938 48.71875 L 0.0390625 48.71875 Z M 0.0390625 0 " fill-opacity="1" fill-rule="nonzero"/><path fill="rgb(100%, 100%, 100%)" d="M 0.0390625 0 L 112.460938 0 L 112.460938 48.71875 L 0.0390625 48.71875 Z M 0.0390625 0 " fill-opacity="1" fill-rule="nonzero"/><path fill="rgb(100%, 100%, 100%)" d="M 0.0390625 0 L 112.460938 0 L 112.460938 48.71875 L 0.0390625 48.71875 Z M 0.0390625 0 " fill-opacity="1" fill-rule="nonzero"/></g><g clip-path="url(#id2)"><path fill="rgb(28.239441%, 52.159119%, 92.939758%)" d="M 27.90625 19.050781 L 14.890625 19.050781 L 14.890625 22.925781 L 24.121094 22.925781 C 23.664062 28.351562 19.160156 30.679688 14.90625 30.679688 C 14.234375 30.683594 13.566406 30.617188 12.90625 30.488281 C 12.246094 30.355469 11.601562 30.164062 10.980469 29.902344 C 10.359375 29.644531 9.765625 29.328125 9.207031 28.949219 C 8.648438 28.574219 8.132812 28.144531 7.65625 27.664062 C 7.183594 27.183594 6.761719 26.660156 6.390625 26.097656 C 6.019531 25.53125 5.707031 24.9375 5.457031 24.308594 C 5.203125 23.679688 5.015625 23.035156 4.890625 22.371094 C 4.769531 21.707031 4.710938 21.035156 4.71875 20.359375 C 4.71875 14.492188 9.246094 9.972656 14.921875 9.972656 C 19.296875 9.972656 21.878906 12.777344 21.878906 12.777344 L 24.578125 9.964844 C 24.578125 9.964844 21.109375 6.085938 14.777344 6.085938 C 6.71875 6.085938 0.484375 12.914062 0.484375 20.289062 C 0.484375 27.519531 6.347656 34.566406 14.980469 34.566406 C 22.578125 34.566406 28.136719 29.34375 28.136719 21.621094 C 28.136719 19.992188 27.898438 19.050781 27.898438 19.050781 Z M 27.90625 19.050781 " fill-opacity="1" fill-rule="nonzero"/></g><path fill="rgb(85.879517%, 19.60907%, 21.179199%)" d="M 38.566406 16.242188 C 33.226562 16.242188 29.398438 20.433594 29.398438 25.320312 C 29.398438 30.277344 33.109375 34.546875 38.628906 34.546875 C 43.621094 34.546875 47.714844 30.714844 47.714844 25.425781 C 47.714844 19.375 42.953125 16.242188 38.566406 16.242188 Z M 38.617188 19.835938 C 41.242188 19.835938 43.730469 21.96875 43.730469 25.402344 C 43.730469 28.761719 41.253906 30.953125 38.605469 30.953125 C 35.695312 30.953125 33.40625 28.617188 33.40625 25.375 C 33.40625 22.203125 35.671875 19.835938 38.625 19.835938 Z M 38.617188 19.835938 " fill-opacity="1" fill-rule="nonzero"/><path fill="rgb(95.689392%, 76.078796%, 5.099487%)" d="M 58.5 16.242188 C 53.160156 16.242188 49.332031 20.433594 49.332031 25.320312 C 49.332031 30.277344 53.042969 34.546875 58.5625 34.546875 C 63.558594 34.546875 67.648438 30.714844 67.648438 25.425781 C 67.648438 19.375 62.890625 16.242188 58.5 16.242188 Z M 58.550781 19.835938 C 61.175781 19.835938 63.664062 21.96875 63.664062 25.402344 C 63.664062 28.761719 61.1875 30.953125 58.539062 30.953125 C 55.628906 30.953125 53.34375 28.617188 53.34375 25.375 C 53.34375 22.203125 55.609375 19.835938 58.558594 19.835938 Z M 58.550781 19.835938 " fill-opacity="1" fill-rule="nonzero"/><g clip-path="url(#id3)"><path fill="rgb(28.239441%, 52.159119%, 92.939758%)" d="M 78.054688 16.253906 C 73.152344 16.253906 69.300781 20.5625 69.300781 25.398438 C 69.300781 30.90625 73.765625 34.558594 77.96875 34.558594 C 80.566406 34.558594 81.949219 33.523438 82.957031 32.335938 L 82.957031 34.140625 C 82.957031 37.300781 81.046875 39.191406 78.164062 39.191406 C 75.378906 39.191406 73.980469 37.109375 73.484375 35.933594 L 69.980469 37.394531 C 71.226562 40.03125 73.726562 42.785156 78.191406 42.785156 C 83.078125 42.785156 86.78125 39.703125 86.78125 33.242188 L 86.78125 16.800781 L 82.972656 16.800781 L 82.972656 18.351562 C 81.796875 17.078125 80.1875 16.253906 78.054688 16.253906 Z M 78.40625 19.839844 C 80.808594 19.839844 83.277344 21.902344 83.277344 25.417969 C 83.277344 28.992188 80.8125 30.964844 78.351562 30.964844 C 75.742188 30.964844 73.308594 28.835938 73.308594 25.449219 C 73.308594 21.9375 75.835938 19.839844 78.40625 19.839844 Z M 78.40625 19.839844 " fill-opacity="1" fill-rule="nonzero"/></g><g clip-path="url(#id4)"><path fill="rgb(85.879517%, 19.60907%, 21.179199%)" d="M 103.800781 16.230469 C 99.175781 16.230469 95.292969 19.921875 95.292969 25.371094 C 95.292969 31.136719 99.621094 34.554688 104.234375 34.554688 C 108.089844 34.554688 110.46875 32.4375 111.871094 30.539062 L 108.71875 28.433594 C 107.902344 29.703125 106.535156 30.953125 104.253906 30.953125 C 101.691406 30.953125 100.511719 29.542969 99.78125 28.175781 L 112.007812 23.085938 L 111.382812 21.59375 C 110.203125 18.671875 107.445312 16.230469 103.800781 16.230469 Z M 103.957031 19.75 C 105.625 19.75 106.824219 20.640625 107.332031 21.707031 L 99.167969 25.128906 C 98.8125 22.480469 101.320312 19.75 103.949219 19.75 Z M 103.957031 19.75 " fill-opacity="1" fill-rule="nonzero"/></g><path fill="rgb(23.529053%, 72.938538%, 32.939148%)" d="M 89.457031 34.011719 L 93.472656 34.011719 L 93.472656 7.035156 L 89.457031 7.035156 Z M 89.457031 34.011719 " fill-opacity="1" fill-rule="nonzero"/></svg>