<svg xmlns="http://www.w3.org/2000/svg" xmlns:xlink="http://www.w3.org/1999/xlink" width="150" zoomAndPan="magnify" viewBox="0 0 112.5 48.75" height="65" preserveAspectRatio="xMidYMid meet" version="1.0"><defs><clipPath id="id1"><path d="M 0.0390625 0 L 111.964844 0 L 111.964844 48.5 L 0.0390625 48.5 Z M 0.0390625 0 " clip-rule="nonzero"/></clipPath><clipPath id="id2"><path d="M 0.0390625 13.421875 L 111.964844 13.421875 L 111.964844 35.15625 L 0.0390625 35.15625 Z M 0.0390625 13.421875 " clip-rule="nonzero"/></clipPath></defs><g clip-path="url(#id1)"><path fill="rgb(100%, 100%, 100%)" d="M 0.0390625 0 L 112.460938 0 L 112.460938 48.71875 L 0.0390625 48.71875 Z M 0.0390625 0 " fill-opacity="1" fill-rule="nonzero"/><path fill="rgb(100%, 100%, 100%)" d="M 0.0390625 0 L 112.460938 0 L 112.460938 48.71875 L 0.0390625 48.71875 Z M 0.0390625 0 " fill-opacity="1" fill-rule="nonzero"/><path fill="rgb(100%, 100%, 100%)" d="M 0.0390625 0 L 112.460938 0 L 112.460938 48.71875 L 0.0390625 48.71875 Z M 0.0390625 0 " fill-opacity="1" fill-rule="nonzero"/></g><g clip-path="url(#id2)"><path fill="rgb(23.529053%, 35.289001%, 59.999084%)" d="M 8.847656 16.804688 C 7.515625 16.804688 7.140625 17.390625 7.140625 18.683594 L 7.140625 20.816406 L 10.675781 20.816406 L 10.328125 24.273438 L 7.140625 24.273438 L 7.140625 34.742188 L 2.90625 34.742188 L 2.90625 24.273438 L 0.0390625 24.273438 L 0.0390625 20.816406 L 2.894531 20.816406 L 2.894531 18.742188 C 2.894531 15.257812 4.296875 13.425781 8.242188 13.425781 C 9.089844 13.425781 10.101562 13.488281 10.707031 13.578125 L 10.707031 16.824219 M 10.949219 28.210938 C 10.949219 32.101562 12.808594 35.015625 16.675781 35.015625 C 18.792969 35.015625 20.121094 33.960938 20.710938 32.628906 L 20.710938 34.730469 L 24.777344 34.730469 L 24.777344 20.816406 L 20.710938 20.816406 L 20.710938 22.949219 C 20.089844 21.613281 18.808594 20.515625 16.675781 20.515625 C 12.804688 20.515625 10.949219 23.445312 10.949219 27.320312 M 15.195312 27.261719 C 15.195312 25.1875 15.964844 23.804688 17.929688 23.804688 C 19.667969 23.804688 20.546875 25.066406 20.546875 27.050781 L 20.546875 28.449219 C 20.546875 30.433594 19.667969 31.695312 17.929688 31.695312 C 15.964844 31.695312 15.195312 30.324219 15.195312 28.238281 Z M 33.601562 20.515625 C 28.640625 20.515625 26.375 23.175781 26.375 27.441406 L 26.375 28.085938 C 26.375 32.351562 28.640625 35.011719 33.613281 35.011719 C 35.273438 35.011719 36.816406 34.667969 37.679688 34.082031 L 36.742188 31.089844 C 35.847656 31.511719 34.902344 31.726562 33.914062 31.738281 C 31.617188 31.738281 30.621094 30.414062 30.621094 28.175781 L 30.621094 27.367188 C 30.621094 25.113281 31.617188 23.804688 33.914062 23.804688 C 35.019531 23.804688 36.089844 24.121094 36.742188 24.449219 L 37.679688 21.460938 C 36.816406 20.859375 35.261719 20.515625 33.613281 20.515625 M 38.222656 28.296875 C 38.222656 32.382812 40.214844 35.042969 45.566406 35.042969 C 47.589844 35.042969 49.886719 34.605469 51.003906 34.019531 L 50.234375 31.121094 C 48.996094 31.644531 47.316406 31.960938 45.730469 31.960938 C 43.375 31.960938 42.527344 31.121094 42.4375 29.210938 L 51.351562 29.210938 L 51.351562 26.988281 C 51.351562 23.136719 49.449219 20.5 45.097656 20.5 C 40.472656 20.5 38.21875 23.097656 38.21875 27.046875 L 38.21875 28.304688 M 42.453125 26.488281 C 42.453125 24.609375 43.191406 23.421875 45.105469 23.421875 C 46.964844 23.421875 47.570312 24.625 47.570312 26.144531 L 47.570312 26.488281 L 42.453125 26.488281 M 67.070312 27.328125 C 67.070312 23.4375 65.179688 20.523438 61.3125 20.523438 C 59.347656 20.523438 57.988281 21.515625 57.367188 22.746094 L 57.367188 13.449219 L 53.136719 13.824219 L 53.136719 34.722656 L 57.140625 34.722656 L 57.140625 32.621094 C 57.730469 33.957031 59.195312 35.023438 61.3125 35.023438 C 65.1875 35.023438 67.070312 32.09375 67.070312 28.21875 M 62.839844 28.277344 C 62.839844 30.230469 62.070312 31.703125 60.042969 31.703125 C 58.308594 31.703125 57.371094 30.472656 57.371094 28.488281 L 57.371094 27.03125 C 57.371094 25.046875 58.308594 23.816406 60.042969 23.816406 C 62.070312 23.816406 62.839844 25.273438 62.839844 27.242188 Z M 68.492188 28.113281 C 68.492188 32.125 70.789062 35.007812 75.457031 35.007812 C 80.128906 35.007812 82.425781 32.109375 82.425781 28.113281 L 82.425781 27.40625 C 82.425781 23.398438 80.128906 20.511719 75.457031 20.511719 C 70.789062 20.511719 68.492188 23.414062 68.492188 27.40625 L 68.492188 28.113281 M 78.195312 28.398438 C 78.195312 30.246094 77.421875 31.703125 75.457031 31.703125 C 73.492188 31.703125 72.722656 30.246094 72.722656 28.398438 L 72.722656 27.109375 C 72.722656 25.261719 73.492188 23.804688 75.457031 23.804688 C 77.421875 23.804688 78.195312 25.261719 78.195312 27.109375 Z M 83.832031 28.113281 C 83.832031 32.125 86.128906 35.007812 90.796875 35.007812 C 95.464844 35.007812 97.765625 32.109375 97.765625 28.113281 L 97.765625 27.40625 C 97.765625 23.398438 95.464844 20.511719 90.796875 20.511719 C 86.128906 20.511719 83.832031 23.414062 83.832031 27.40625 L 83.832031 28.113281 M 93.546875 28.398438 C 93.546875 30.246094 92.777344 31.703125 90.808594 31.703125 C 88.84375 31.703125 88.074219 30.273438 88.074219 28.40625 L 88.074219 27.113281 C 88.074219 25.265625 88.84375 23.808594 90.808594 23.808594 C 92.773438 23.808594 93.542969 25.265625 93.542969 27.113281 Z M 103.59375 13.4375 L 99.363281 13.8125 L 99.363281 34.683594 L 103.59375 34.683594 L 103.59375 27.878906 L 107.945312 34.683594 L 112.449219 34.683594 L 107.886719 27.644531 L 112.269531 20.78125 L 107.765625 20.78125 L 103.59375 27.421875 " fill-opacity="1" fill-rule="nonzero"/></g></svg>