<svg xmlns="http://www.w3.org/2000/svg" xmlns:xlink="http://www.w3.org/1999/xlink" width="150" zoomAndPan="magnify" viewBox="0 0 112.5 48.75" height="65" preserveAspectRatio="xMidYMid meet" version="1.0"><defs><g><g id="id1"/><g id="id2"/></g><clipPath id="id3"><path d="M 0.0390625 0 L 111.964844 0 L 111.964844 48.5 L 0.0390625 48.5 Z M 0.0390625 0 " clip-rule="nonzero"/></clipPath></defs><g clip-path="url(#id3)"><path fill="rgb(100%, 100%, 100%)" d="M 0.0390625 0 L 112.460938 0 L 112.460938 55.460938 L 0.0390625 55.460938 Z M 0.0390625 0 " fill-opacity="1" fill-rule="nonzero"/><path fill="rgb(100%, 100%, 100%)" d="M 0.0390625 0 L 112.460938 0 L 112.460938 48.71875 L 0.0390625 48.71875 Z M 0.0390625 0 " fill-opacity="1" fill-rule="nonzero"/><path fill="rgb(100%, 100%, 100%)" d="M 0.0390625 0 L 112.460938 0 L 112.460938 48.71875 L 0.0390625 48.71875 Z M 0.0390625 0 " fill-opacity="1" fill-rule="nonzero"/><path fill="rgb(100%, 100%, 100%)" d="M 0.0390625 0 L 112.460938 0 L 112.460938 48.71875 L 0.0390625 48.71875 Z M 0.0390625 0 " fill-opacity="1" fill-rule="nonzero"/></g><g fill="rgb(0.389099%, 46.669006%, 70.979309%)" fill-opacity="1"><g transform="translate(2.833344, 19.881466)"><g><path d="M 4.734375 -4.109375 L 4.71875 -2.640625 L 4.71875 -2.625 C 5.332031 -2.644531 5.832031 -2.65625 6.21875 -2.65625 L 10.921875 -2.65625 C 10.921875 -2.15625 10.90625 -1.769531 10.875 -1.5 C 10.707031 -0.457031 10.015625 0.0625 8.796875 0.0625 L 3.390625 0.0625 C 2.804688 0.0625 2.347656 -0.101562 2.015625 -0.4375 C 1.691406 -0.78125 1.53125 -1.242188 1.53125 -1.828125 L 1.53125 -13.734375 L 1.671875 -13.875 L 10.421875 -13.875 C 10.503906 -13.476562 10.546875 -13.050781 10.546875 -12.59375 C 10.546875 -12.132812 10.453125 -11.65625 10.265625 -11.15625 L 4.71875 -11.15625 L 4.734375 -9.6875 L 4.734375 -8.265625 C 5.085938 -8.273438 5.546875 -8.28125 6.109375 -8.28125 L 9.21875 -8.28125 C 9.34375 -7.90625 9.40625 -7.472656 9.40625 -6.984375 C 9.40625 -6.492188 9.34375 -6.046875 9.21875 -5.640625 L 4.734375 -5.640625 Z M 4.734375 -4.109375 "/></g></g></g><g fill="rgb(0.389099%, 46.669006%, 70.979309%)" fill-opacity="1"><g transform="translate(14.678875, 19.881466)"><g><path d="M 0.40625 -0.6875 C 0.414062 -1.039062 0.503906 -1.425781 0.671875 -1.84375 C 0.847656 -2.269531 1.050781 -2.601562 1.28125 -2.84375 C 2.363281 -2.269531 3.304688 -1.984375 4.109375 -1.984375 C 4.484375 -1.984375 4.769531 -2.046875 4.96875 -2.171875 C 5.175781 -2.304688 5.28125 -2.484375 5.28125 -2.703125 C 5.28125 -3.109375 4.96875 -3.410156 4.34375 -3.609375 L 3.234375 -4.046875 C 1.535156 -4.671875 0.6875 -5.6875 0.6875 -7.09375 C 0.6875 -8.125 1.039062 -8.9375 1.75 -9.53125 C 2.46875 -10.132812 3.425781 -10.4375 4.625 -10.4375 C 5.226562 -10.4375 5.882812 -10.351562 6.59375 -10.1875 C 7.3125 -10.019531 7.90625 -9.820312 8.375 -9.59375 C 8.394531 -9.207031 8.316406 -8.785156 8.140625 -8.328125 C 7.960938 -7.878906 7.75 -7.5625 7.5 -7.375 C 6.363281 -7.882812 5.414062 -8.140625 4.65625 -8.140625 C 4.382812 -8.140625 4.175781 -8.078125 4.03125 -7.953125 C 3.882812 -7.835938 3.8125 -7.6875 3.8125 -7.5 C 3.8125 -7.175781 4.070312 -6.914062 4.59375 -6.71875 L 5.84375 -6.28125 C 7.644531 -5.644531 8.546875 -4.550781 8.546875 -3 C 8.546875 -1.988281 8.171875 -1.179688 7.421875 -0.578125 C 6.679688 0.015625 5.625 0.3125 4.25 0.3125 C 2.863281 0.3125 1.582031 -0.0195312 0.40625 -0.6875 Z M 0.40625 -0.6875 "/></g></g></g><g fill="rgb(0.389099%, 46.669006%, 70.979309%)" fill-opacity="1"><g transform="translate(23.883043, 19.881466)"><g><path d="M 6.203125 0.203125 C 5.578125 0.203125 4.953125 0.0625 4.328125 -0.21875 L 4.328125 2.484375 C 4.328125 3.179688 4.195312 3.671875 3.9375 3.953125 C 3.6875 4.242188 3.234375 4.390625 2.578125 4.390625 L 1.359375 4.390625 L 1.21875 4.25 L 1.21875 -10.140625 L 1.359375 -10.28125 L 2.1875 -10.28125 C 2.96875 -10.28125 3.546875 -9.945312 3.921875 -9.28125 C 4.691406 -10.050781 5.632812 -10.4375 6.75 -10.4375 C 7.3125 -10.4375 7.804688 -10.3125 8.234375 -10.0625 C 8.671875 -9.8125 9.039062 -9.457031 9.34375 -9 C 9.65625 -8.539062 9.890625 -7.984375 10.046875 -7.328125 C 10.203125 -6.679688 10.28125 -5.953125 10.28125 -5.140625 C 10.28125 -4.328125 10.175781 -3.585938 9.96875 -2.921875 C 9.757812 -2.265625 9.46875 -1.703125 9.09375 -1.234375 C 8.726562 -0.773438 8.296875 -0.421875 7.796875 -0.171875 C 7.304688 0.078125 6.773438 0.203125 6.203125 0.203125 Z M 5.8125 -7.90625 C 5.238281 -7.90625 4.742188 -7.632812 4.328125 -7.09375 L 4.328125 -2.625 C 4.835938 -2.3125 5.273438 -2.15625 5.640625 -2.15625 C 6.566406 -2.15625 7.03125 -3.175781 7.03125 -5.21875 C 7.03125 -7.007812 6.625 -7.90625 5.8125 -7.90625 Z M 5.8125 -7.90625 "/></g></g></g><g fill="rgb(0.389099%, 46.669006%, 70.979309%)" fill-opacity="1"><g transform="translate(35.017442, 19.881466)"><g><path d="M 9.125 -4.046875 L 3.8125 -4.046875 C 3.84375 -3.429688 4 -2.953125 4.28125 -2.609375 C 4.570312 -2.273438 5.039062 -2.109375 5.6875 -2.109375 C 6.007812 -2.109375 6.382812 -2.15625 6.8125 -2.25 C 7.238281 -2.34375 7.726562 -2.5 8.28125 -2.71875 C 8.726562 -2.257812 9.007812 -1.640625 9.125 -0.859375 C 8.039062 -0.078125 6.710938 0.3125 5.140625 0.3125 C 4.285156 0.3125 3.570312 0.175781 3 -0.09375 C 2.425781 -0.375 1.957031 -0.753906 1.59375 -1.234375 C 1.238281 -1.722656 0.984375 -2.300781 0.828125 -2.96875 C 0.679688 -3.632812 0.609375 -4.359375 0.609375 -5.140625 C 0.609375 -5.898438 0.695312 -6.597656 0.875 -7.234375 C 1.0625 -7.878906 1.34375 -8.4375 1.71875 -8.90625 C 2.09375 -9.382812 2.566406 -9.757812 3.140625 -10.03125 C 3.710938 -10.300781 4.382812 -10.4375 5.15625 -10.4375 C 5.8125 -10.4375 6.398438 -10.328125 6.921875 -10.109375 C 7.441406 -9.898438 7.882812 -9.601562 8.25 -9.21875 C 8.613281 -8.84375 8.894531 -8.390625 9.09375 -7.859375 C 9.289062 -7.328125 9.390625 -6.753906 9.390625 -6.140625 C 9.390625 -5.304688 9.300781 -4.609375 9.125 -4.046875 Z M 3.796875 -6.234375 L 6.484375 -6.234375 L 6.484375 -6.453125 C 6.484375 -6.960938 6.367188 -7.378906 6.140625 -7.703125 C 5.921875 -8.023438 5.585938 -8.1875 5.140625 -8.1875 C 4.703125 -8.1875 4.378906 -8.03125 4.171875 -7.71875 C 3.960938 -7.414062 3.835938 -6.921875 3.796875 -6.234375 Z M 3.796875 -6.234375 "/></g></g></g><g fill="rgb(0.389099%, 46.669006%, 70.979309%)" fill-opacity="1"><g transform="translate(45.318786, 19.881466)"><g><path d="M 0.609375 -8.671875 C 0.679688 -8.941406 0.8125 -9.242188 1 -9.578125 C 1.1875 -9.910156 1.375 -10.148438 1.5625 -10.296875 C 2.8125 -10.203125 3.679688 -9.585938 4.171875 -8.453125 C 4.679688 -9.671875 5.523438 -10.28125 6.703125 -10.28125 C 7.054688 -10.28125 7.503906 -10.222656 8.046875 -10.109375 C 8.046875 -9.691406 7.972656 -9.195312 7.828125 -8.625 C 7.691406 -8.050781 7.5 -7.5625 7.25 -7.15625 C 7.019531 -7.226562 6.675781 -7.296875 6.21875 -7.359375 C 5.539062 -7.359375 4.984375 -7.007812 4.546875 -6.3125 L 4.546875 0 C 4.097656 0.0820312 3.570312 0.125 2.96875 0.125 C 2.375 0.125 1.84375 0.0820312 1.375 0 L 1.375 -6.5625 C 1.375 -7.570312 1.117188 -8.273438 0.609375 -8.671875 Z M 0.609375 -8.671875 "/></g></g></g><g fill="rgb(0.389099%, 46.669006%, 70.979309%)" fill-opacity="1"><g transform="translate(53.58831, 19.881466)"><g><path d="M 8.53125 -9.25 C 9.507812 -8.269531 10 -6.875 10 -5.0625 C 10 -4.25 9.890625 -3.507812 9.671875 -2.84375 C 9.460938 -2.175781 9.160156 -1.609375 8.765625 -1.140625 C 8.367188 -0.679688 7.878906 -0.320312 7.296875 -0.0625 C 6.710938 0.1875 6.039062 0.3125 5.28125 0.3125 C 4.519531 0.3125 3.851562 0.179688 3.28125 -0.078125 C 2.707031 -0.335938 2.21875 -0.703125 1.8125 -1.171875 C 1.414062 -1.640625 1.113281 -2.203125 0.90625 -2.859375 C 0.707031 -3.523438 0.609375 -4.257812 0.609375 -5.0625 C 0.609375 -5.875 0.707031 -6.609375 0.90625 -7.265625 C 1.113281 -7.921875 1.410156 -8.484375 1.796875 -8.953125 C 2.191406 -9.429688 2.679688 -9.796875 3.265625 -10.046875 C 3.847656 -10.304688 4.519531 -10.4375 5.28125 -10.4375 C 6.625 -10.4375 7.707031 -10.039062 8.53125 -9.25 Z M 5.296875 -8.0625 C 5.003906 -8.0625 4.765625 -7.988281 4.578125 -7.84375 C 4.398438 -7.707031 4.253906 -7.515625 4.140625 -7.265625 C 4.035156 -7.023438 3.960938 -6.742188 3.921875 -6.421875 C 3.878906 -6.109375 3.859375 -5.769531 3.859375 -5.40625 C 3.859375 -4.832031 3.875 -4.335938 3.90625 -3.921875 C 3.945312 -3.515625 4.015625 -3.171875 4.109375 -2.890625 C 4.210938 -2.617188 4.351562 -2.414062 4.53125 -2.28125 C 4.71875 -2.144531 4.960938 -2.078125 5.265625 -2.078125 C 5.859375 -2.078125 6.25 -2.335938 6.4375 -2.859375 C 6.625 -3.378906 6.71875 -4.117188 6.71875 -5.078125 C 6.71875 -6.054688 6.625 -6.796875 6.4375 -7.296875 C 6.25 -7.804688 5.867188 -8.0625 5.296875 -8.0625 Z M 5.296875 -8.0625 "/></g></g></g><g fill="rgb(0.389099%, 46.669006%, 70.979309%)" fill-opacity="1"><g transform="translate(64.397609, 19.881466)"><g><path d="M 6.6875 -4.203125 L 0.953125 -4.203125 C 0.867188 -4.546875 0.828125 -4.96875 0.828125 -5.46875 C 0.828125 -5.976562 0.867188 -6.40625 0.953125 -6.75 L 6.6875 -6.75 C 6.769531 -6.40625 6.8125 -5.976562 6.8125 -5.46875 C 6.8125 -4.96875 6.769531 -4.546875 6.6875 -4.203125 Z M 6.6875 -4.203125 "/></g></g></g><g fill="rgb(0.389099%, 46.669006%, 70.979309%)" fill-opacity="1"><g transform="translate(72.240456, 19.881466)"><g><path d="M 0.3125 -1.203125 C 0.34375 -1.648438 0.476562 -2.09375 0.71875 -2.53125 C 0.957031 -2.976562 1.238281 -3.347656 1.5625 -3.640625 C 3.007812 -2.753906 4.382812 -2.3125 5.6875 -2.3125 C 6.257812 -2.3125 6.675781 -2.441406 6.9375 -2.703125 C 7.195312 -2.960938 7.328125 -3.28125 7.328125 -3.65625 C 7.328125 -4.289062 6.898438 -4.789062 6.046875 -5.15625 L 3.65625 -6.171875 C 2.71875 -6.597656 2 -7.101562 1.5 -7.6875 C 1 -8.28125 0.75 -9.03125 0.75 -9.9375 C 0.75 -10.5625 0.875 -11.128906 1.125 -11.640625 C 1.375 -12.148438 1.722656 -12.59375 2.171875 -12.96875 C 2.628906 -13.351562 3.171875 -13.648438 3.796875 -13.859375 C 4.421875 -14.066406 5.113281 -14.171875 5.875 -14.171875 C 7.382812 -14.171875 8.914062 -13.785156 10.46875 -13.015625 C 10.394531 -11.972656 10.023438 -11.160156 9.359375 -10.578125 C 7.984375 -11.242188 6.765625 -11.578125 5.703125 -11.578125 C 5.160156 -11.578125 4.753906 -11.453125 4.484375 -11.203125 C 4.210938 -10.960938 4.078125 -10.6875 4.078125 -10.375 C 4.078125 -9.851562 4.476562 -9.425781 5.28125 -9.09375 L 7.71875 -8.0625 C 8.75 -7.632812 9.515625 -7.082031 10.015625 -6.40625 C 10.523438 -5.726562 10.78125 -4.941406 10.78125 -4.046875 C 10.78125 -3.410156 10.664062 -2.828125 10.4375 -2.296875 C 10.207031 -1.765625 9.863281 -1.304688 9.40625 -0.921875 C 8.957031 -0.535156 8.394531 -0.234375 7.71875 -0.015625 C 7.039062 0.203125 6.25 0.3125 5.34375 0.3125 C 3.582031 0.3125 1.90625 -0.191406 0.3125 -1.203125 Z M 0.3125 -1.203125 "/></g></g></g><g fill="rgb(0.389099%, 46.669006%, 70.979309%)" fill-opacity="1"><g transform="translate(83.760899, 19.881466)"><g><path d="M 8.53125 -9.25 C 9.507812 -8.269531 10 -6.875 10 -5.0625 C 10 -4.25 9.890625 -3.507812 9.671875 -2.84375 C 9.460938 -2.175781 9.160156 -1.609375 8.765625 -1.140625 C 8.367188 -0.679688 7.878906 -0.320312 7.296875 -0.0625 C 6.710938 0.1875 6.039062 0.3125 5.28125 0.3125 C 4.519531 0.3125 3.851562 0.179688 3.28125 -0.078125 C 2.707031 -0.335938 2.21875 -0.703125 1.8125 -1.171875 C 1.414062 -1.640625 1.113281 -2.203125 0.90625 -2.859375 C 0.707031 -3.523438 0.609375 -4.257812 0.609375 -5.0625 C 0.609375 -5.875 0.707031 -6.609375 0.90625 -7.265625 C 1.113281 -7.921875 1.410156 -8.484375 1.796875 -8.953125 C 2.191406 -9.429688 2.679688 -9.796875 3.265625 -10.046875 C 3.847656 -10.304688 4.519531 -10.4375 5.28125 -10.4375 C 6.625 -10.4375 7.707031 -10.039062 8.53125 -9.25 Z M 5.296875 -8.0625 C 5.003906 -8.0625 4.765625 -7.988281 4.578125 -7.84375 C 4.398438 -7.707031 4.253906 -7.515625 4.140625 -7.265625 C 4.035156 -7.023438 3.960938 -6.742188 3.921875 -6.421875 C 3.878906 -6.109375 3.859375 -5.769531 3.859375 -5.40625 C 3.859375 -4.832031 3.875 -4.335938 3.90625 -3.921875 C 3.945312 -3.515625 4.015625 -3.171875 4.109375 -2.890625 C 4.210938 -2.617188 4.351562 -2.414062 4.53125 -2.28125 C 4.71875 -2.144531 4.960938 -2.078125 5.265625 -2.078125 C 5.859375 -2.078125 6.25 -2.335938 6.4375 -2.859375 C 6.625 -3.378906 6.71875 -4.117188 6.71875 -5.078125 C 6.71875 -6.054688 6.625 -6.796875 6.4375 -7.296875 C 6.25 -7.804688 5.867188 -8.0625 5.296875 -8.0625 Z M 5.296875 -8.0625 "/></g></g></g><g fill="rgb(0.389099%, 46.669006%, 70.979309%)" fill-opacity="1"><g transform="translate(94.570198, 19.881466)"><g><path d="M 1.78125 0 L 1.78125 -7.921875 L 0.046875 -7.90625 C -0.0351562 -8.238281 -0.078125 -8.609375 -0.078125 -9.015625 C -0.078125 -9.421875 -0.0351562 -9.800781 0.046875 -10.15625 L 1.625 -10.140625 C 1.5625 -10.640625 1.53125 -11.09375 1.53125 -11.5 C 1.53125 -12.507812 1.859375 -13.347656 2.515625 -14.015625 C 3.171875 -14.691406 4.023438 -15.03125 5.078125 -15.03125 C 6.128906 -15.03125 7.164062 -14.84375 8.1875 -14.46875 C 8.195312 -14.113281 8.132812 -13.726562 8 -13.3125 C 7.863281 -12.90625 7.695312 -12.59375 7.5 -12.375 C 6.863281 -12.5625 6.34375 -12.65625 5.9375 -12.65625 C 5.03125 -12.65625 4.578125 -12.1875 4.578125 -11.25 C 4.578125 -10.863281 4.601562 -10.484375 4.65625 -10.109375 L 7.3125 -10.15625 C 7.394531 -9.800781 7.4375 -9.421875 7.4375 -9.015625 C 7.4375 -8.609375 7.394531 -8.238281 7.3125 -7.90625 L 4.875 -7.9375 L 4.875 0 C 4.414062 0.0820312 3.90625 0.125 3.34375 0.125 C 2.789062 0.125 2.269531 0.0820312 1.78125 0 Z M 1.78125 0 "/></g></g></g><g fill="rgb(0.389099%, 46.669006%, 70.979309%)" fill-opacity="1"><g transform="translate(102.047312, 19.881466)"><g><path d="M 7.15625 -10.15625 C 7.226562 -9.78125 7.265625 -9.398438 7.265625 -9.015625 C 7.265625 -8.640625 7.226562 -8.269531 7.15625 -7.90625 L 4.734375 -7.9375 L 4.734375 -3.265625 C 4.734375 -2.628906 5.03125 -2.3125 5.625 -2.3125 L 6.765625 -2.3125 C 6.941406 -1.820312 7.03125 -1.375 7.03125 -0.96875 C 7.03125 -0.5625 7.003906 -0.273438 6.953125 -0.109375 C 5.941406 0.0351562 5.019531 0.109375 4.1875 0.109375 C 2.476562 0.109375 1.625 -0.832031 1.625 -2.71875 L 1.625 -7.921875 L 0.046875 -7.90625 C -0.0546875 -8.238281 -0.109375 -8.601562 -0.109375 -9 C -0.109375 -9.40625 -0.0546875 -9.789062 0.046875 -10.15625 L 1.625 -10.109375 L 1.625 -11.296875 C 1.625 -11.984375 1.753906 -12.472656 2.015625 -12.765625 C 2.285156 -13.054688 2.734375 -13.203125 3.359375 -13.203125 L 4.59375 -13.203125 L 4.734375 -13.0625 L 4.734375 -10.109375 Z M 7.15625 -10.15625 "/></g></g></g><g fill="rgb(0%, 0%, 0%)" fill-opacity="1"><g transform="translate(1.849638, 40.11769)"><g><path d="M 1.359375 0 L 1.359375 -11.828125 C 1.710938 -11.898438 2.171875 -11.9375 2.734375 -11.9375 C 3.304688 -11.9375 3.773438 -11.898438 4.140625 -11.828125 L 4.140625 0 C 3.773438 0.0703125 3.304688 0.109375 2.734375 0.109375 C 2.171875 0.109375 1.710938 0.0703125 1.359375 0 Z M 1.359375 0 "/></g></g></g><g fill="rgb(0%, 0%, 0%)" fill-opacity="1"><g transform="translate(7.513396, 40.11769)"><g><path d="M 8.484375 -5.71875 L 8.484375 -2.171875 C 8.484375 -1.398438 8.625 -0.828125 8.90625 -0.453125 C 8.46875 -0.0546875 7.941406 0.140625 7.328125 0.140625 C 6.722656 0.140625 6.3125 0.00390625 6.09375 -0.265625 C 5.875 -0.546875 5.765625 -0.972656 5.765625 -1.546875 L 5.765625 -5.234375 C 5.765625 -5.628906 5.710938 -5.914062 5.609375 -6.09375 C 5.503906 -6.28125 5.300781 -6.375 5 -6.375 C 4.832031 -6.375 4.640625 -6.328125 4.421875 -6.234375 C 4.203125 -6.140625 3.976562 -5.988281 3.75 -5.78125 L 3.75 0 C 3.550781 0.03125 3.332031 0.0546875 3.09375 0.078125 C 2.863281 0.0976562 2.628906 0.109375 2.390625 0.109375 C 2.148438 0.109375 1.910156 0.0976562 1.671875 0.078125 C 1.441406 0.0546875 1.234375 0.03125 1.046875 0 L 1.046875 -8.640625 L 1.15625 -8.765625 L 2.1875 -8.765625 C 2.882812 -8.765625 3.359375 -8.421875 3.609375 -7.734375 C 4.410156 -8.441406 5.210938 -8.796875 6.015625 -8.796875 C 6.816406 -8.796875 7.425781 -8.515625 7.84375 -7.953125 C 8.269531 -7.398438 8.484375 -6.65625 8.484375 -5.71875 Z M 8.484375 -5.71875 "/></g></g></g><g fill="rgb(0%, 0%, 0%)" fill-opacity="1"><g transform="translate(17.160819, 40.11769)"><g><path d="M 1.53125 0 L 1.53125 -6.765625 L 0.03125 -6.734375 C -0.03125 -7.023438 -0.0625 -7.34375 -0.0625 -7.6875 C -0.0625 -8.039062 -0.03125 -8.363281 0.03125 -8.65625 L 1.390625 -8.640625 C 1.328125 -9.066406 1.296875 -9.457031 1.296875 -9.8125 C 1.296875 -10.675781 1.578125 -11.394531 2.140625 -11.96875 C 2.703125 -12.539062 3.429688 -12.828125 4.328125 -12.828125 C 5.234375 -12.828125 6.117188 -12.664062 6.984375 -12.34375 C 6.992188 -12.039062 6.941406 -11.710938 6.828125 -11.359375 C 6.710938 -11.003906 6.566406 -10.734375 6.390625 -10.546875 C 5.847656 -10.710938 5.40625 -10.796875 5.0625 -10.796875 C 4.289062 -10.796875 3.90625 -10.394531 3.90625 -9.59375 C 3.90625 -9.257812 3.925781 -8.9375 3.96875 -8.625 L 6.234375 -8.65625 C 6.304688 -8.363281 6.34375 -8.039062 6.34375 -7.6875 C 6.34375 -7.34375 6.304688 -7.023438 6.234375 -6.734375 L 4.15625 -6.78125 L 4.15625 0 C 3.757812 0.0703125 3.328125 0.109375 2.859375 0.109375 C 2.390625 0.109375 1.945312 0.0703125 1.53125 0 Z M 1.53125 0 "/></g></g></g><g fill="rgb(0%, 0%, 0%)" fill-opacity="1"><g transform="translate(23.534703, 40.11769)"><g><path d="M 7.28125 -7.890625 C 8.113281 -7.054688 8.53125 -5.863281 8.53125 -4.3125 C 8.53125 -3.625 8.4375 -2.992188 8.25 -2.421875 C 8.070312 -1.859375 7.8125 -1.375 7.46875 -0.96875 C 7.132812 -0.570312 6.71875 -0.265625 6.21875 -0.046875 C 5.71875 0.160156 5.144531 0.265625 4.5 0.265625 C 3.851562 0.265625 3.285156 0.15625 2.796875 -0.0625 C 2.304688 -0.289062 1.890625 -0.601562 1.546875 -1 C 1.210938 -1.394531 0.957031 -1.875 0.78125 -2.4375 C 0.601562 -3.007812 0.515625 -3.632812 0.515625 -4.3125 C 0.515625 -5.007812 0.601562 -5.632812 0.78125 -6.1875 C 0.957031 -6.75 1.210938 -7.234375 1.546875 -7.640625 C 1.878906 -8.046875 2.289062 -8.359375 2.78125 -8.578125 C 3.28125 -8.796875 3.851562 -8.90625 4.5 -8.90625 C 5.644531 -8.90625 6.570312 -8.566406 7.28125 -7.890625 Z M 4.515625 -6.875 C 4.265625 -6.875 4.0625 -6.8125 3.90625 -6.6875 C 3.75 -6.570312 3.625 -6.410156 3.53125 -6.203125 C 3.4375 -5.992188 3.375 -5.753906 3.34375 -5.484375 C 3.3125 -5.210938 3.296875 -4.921875 3.296875 -4.609375 C 3.296875 -4.117188 3.304688 -3.695312 3.328125 -3.34375 C 3.359375 -3 3.414062 -2.707031 3.5 -2.46875 C 3.59375 -2.226562 3.71875 -2.050781 3.875 -1.9375 C 4.03125 -1.820312 4.234375 -1.765625 4.484375 -1.765625 C 4.992188 -1.765625 5.328125 -1.988281 5.484375 -2.4375 C 5.648438 -2.882812 5.734375 -3.515625 5.734375 -4.328125 C 5.734375 -5.160156 5.648438 -5.789062 5.484375 -6.21875 C 5.328125 -6.65625 5.003906 -6.875 4.515625 -6.875 Z M 4.515625 -6.875 "/></g></g></g><g fill="rgb(0%, 0%, 0%)" fill-opacity="1"><g transform="translate(32.749113, 40.11769)"><g><path d="M 0.515625 -7.40625 C 0.578125 -7.632812 0.6875 -7.890625 0.84375 -8.171875 C 1.007812 -8.453125 1.171875 -8.65625 1.328125 -8.78125 C 2.390625 -8.695312 3.128906 -8.171875 3.546875 -7.203125 C 3.984375 -8.242188 4.707031 -8.765625 5.71875 -8.765625 C 6.019531 -8.765625 6.398438 -8.71875 6.859375 -8.625 C 6.859375 -8.269531 6.796875 -7.847656 6.671875 -7.359375 C 6.554688 -6.867188 6.394531 -6.445312 6.1875 -6.09375 C 5.988281 -6.164062 5.691406 -6.222656 5.296875 -6.265625 C 4.722656 -6.265625 4.25 -5.972656 3.875 -5.390625 L 3.875 0 C 3.5 0.0703125 3.050781 0.109375 2.53125 0.109375 C 2.019531 0.109375 1.566406 0.0703125 1.171875 0 L 1.171875 -5.59375 C 1.171875 -6.457031 0.953125 -7.0625 0.515625 -7.40625 Z M 0.515625 -7.40625 "/></g></g></g><g fill="rgb(0%, 0%, 0%)" fill-opacity="1"><g transform="translate(39.798492, 40.11769)"><g><path d="M 5.671875 -5.21875 C 5.671875 -5.988281 5.410156 -6.375 4.890625 -6.375 C 4.703125 -6.375 4.507812 -6.316406 4.3125 -6.203125 C 4.125 -6.097656 3.9375 -5.957031 3.75 -5.78125 L 3.75 0 C 3.550781 0.03125 3.332031 0.0546875 3.09375 0.078125 C 2.863281 0.0976562 2.628906 0.109375 2.390625 0.109375 C 2.148438 0.109375 1.910156 0.0976562 1.671875 0.078125 C 1.441406 0.0546875 1.234375 0.03125 1.046875 0 L 1.046875 -8.640625 L 1.15625 -8.765625 L 2.171875 -8.765625 C 2.910156 -8.765625 3.394531 -8.398438 3.625 -7.671875 C 4.445312 -8.421875 5.242188 -8.796875 6.015625 -8.796875 C 6.953125 -8.796875 7.628906 -8.398438 8.046875 -7.609375 C 8.941406 -8.398438 9.796875 -8.796875 10.609375 -8.796875 C 11.410156 -8.796875 12.007812 -8.546875 12.40625 -8.046875 C 12.8125 -7.546875 13.015625 -6.878906 13.015625 -6.046875 L 13.015625 -2.171875 C 13.015625 -1.421875 13.160156 -0.847656 13.453125 -0.453125 C 13.003906 -0.0546875 12.476562 0.140625 11.875 0.140625 C 11.269531 0.140625 10.859375 0.00390625 10.640625 -0.265625 C 10.421875 -0.546875 10.3125 -0.972656 10.3125 -1.546875 L 10.3125 -5.234375 C 10.3125 -5.992188 10.039062 -6.375 9.5 -6.375 C 9.164062 -6.375 8.796875 -6.171875 8.390625 -5.765625 L 8.390625 0 C 8.191406 0.03125 7.976562 0.0546875 7.75 0.078125 C 7.519531 0.0976562 7.28125 0.109375 7.03125 0.109375 C 6.789062 0.109375 6.550781 0.0976562 6.3125 0.078125 C 6.070312 0.0546875 5.859375 0.03125 5.671875 0 Z M 5.671875 -5.21875 "/></g></g></g><g fill="rgb(0%, 0%, 0%)" fill-opacity="1"><g transform="translate(53.966503, 40.11769)"><g><path d="M 8.390625 -1.25 C 8.328125 -1.007812 8.210938 -0.75 8.046875 -0.46875 C 7.890625 -0.1875 7.726562 0.015625 7.5625 0.140625 C 6.75 0.117188 6.125 -0.1875 5.6875 -0.78125 C 4.9375 -0.0820312 4.117188 0.265625 3.234375 0.265625 C 2.785156 0.265625 2.394531 0.191406 2.0625 0.046875 C 1.726562 -0.0976562 1.441406 -0.289062 1.203125 -0.53125 C 0.972656 -0.78125 0.800781 -1.0625 0.6875 -1.375 C 0.570312 -1.695312 0.515625 -2.03125 0.515625 -2.375 C 0.515625 -2.875 0.601562 -3.3125 0.78125 -3.6875 C 0.96875 -4.0625 1.21875 -4.367188 1.53125 -4.609375 C 1.84375 -4.859375 2.203125 -5.046875 2.609375 -5.171875 C 3.023438 -5.304688 3.472656 -5.375 3.953125 -5.375 C 4.210938 -5.375 4.441406 -5.367188 4.640625 -5.359375 C 4.847656 -5.359375 5.03125 -5.351562 5.1875 -5.34375 L 5.1875 -5.671875 C 5.1875 -6.398438 4.8125 -6.765625 4.0625 -6.765625 C 3.570312 -6.765625 2.71875 -6.578125 1.5 -6.203125 C 1.15625 -6.609375 0.9375 -7.238281 0.84375 -8.09375 C 1.125 -8.195312 1.429688 -8.296875 1.765625 -8.390625 C 2.109375 -8.484375 2.457031 -8.5625 2.8125 -8.625 C 3.175781 -8.695312 3.53125 -8.753906 3.875 -8.796875 C 4.226562 -8.835938 4.539062 -8.859375 4.8125 -8.859375 C 5.21875 -8.859375 5.609375 -8.800781 5.984375 -8.6875 C 6.359375 -8.570312 6.6875 -8.394531 6.96875 -8.15625 C 7.257812 -7.914062 7.488281 -7.609375 7.65625 -7.234375 C 7.820312 -6.859375 7.90625 -6.410156 7.90625 -5.890625 L 7.90625 -2.375 C 7.90625 -1.84375 8.066406 -1.46875 8.390625 -1.25 Z M 3.15625 -2.546875 C 3.15625 -2.003906 3.46875 -1.734375 4.09375 -1.734375 C 4.414062 -1.734375 4.78125 -1.898438 5.1875 -2.234375 L 5.1875 -3.625 C 4.945312 -3.632812 4.75 -3.640625 4.59375 -3.640625 C 4.4375 -3.648438 4.320312 -3.65625 4.25 -3.65625 C 3.519531 -3.65625 3.15625 -3.285156 3.15625 -2.546875 Z M 3.15625 -2.546875 "/></g></g></g><g fill="rgb(0%, 0%, 0%)" fill-opacity="1"><g transform="translate(63.025036, 40.11769)"><g><path d="M 6.09375 -8.65625 C 6.164062 -8.332031 6.203125 -8.007812 6.203125 -7.6875 C 6.203125 -7.363281 6.164062 -7.046875 6.09375 -6.734375 L 4.03125 -6.78125 L 4.03125 -2.796875 C 4.03125 -2.242188 4.285156 -1.96875 4.796875 -1.96875 L 5.765625 -1.96875 C 5.921875 -1.5625 6 -1.179688 6 -0.828125 C 6 -0.484375 5.972656 -0.238281 5.921875 -0.09375 C 5.066406 0.03125 4.28125 0.09375 3.5625 0.09375 C 2.113281 0.09375 1.390625 -0.710938 1.390625 -2.328125 L 1.390625 -6.765625 L 0.03125 -6.734375 C -0.0507812 -7.023438 -0.09375 -7.34375 -0.09375 -7.6875 C -0.09375 -8.03125 -0.0507812 -8.351562 0.03125 -8.65625 L 1.390625 -8.625 L 1.390625 -9.640625 C 1.390625 -10.222656 1.5 -10.640625 1.71875 -10.890625 C 1.945312 -11.140625 2.328125 -11.265625 2.859375 -11.265625 L 3.921875 -11.265625 L 4.03125 -11.140625 L 4.03125 -8.625 Z M 6.09375 -8.65625 "/></g></g></g><g fill="rgb(0%, 0%, 0%)" fill-opacity="1"><g transform="translate(69.693368, 40.11769)"><g><path d="M 4.15625 -6.65625 L 4.15625 0 C 3.957031 0.03125 3.742188 0.0546875 3.515625 0.078125 C 3.285156 0.0976562 3.050781 0.109375 2.8125 0.109375 C 2.5625 0.109375 2.316406 0.0976562 2.078125 0.078125 C 1.847656 0.0546875 1.632812 0.03125 1.4375 0 L 1.4375 -5.734375 C 1.4375 -6.398438 1.164062 -6.734375 0.625 -6.734375 L 0.359375 -6.734375 C 0.296875 -6.953125 0.265625 -7.257812 0.265625 -7.65625 C 0.265625 -8.039062 0.296875 -8.363281 0.359375 -8.625 C 0.660156 -8.644531 0.9375 -8.664062 1.1875 -8.6875 C 1.445312 -8.707031 1.679688 -8.71875 1.890625 -8.71875 L 2.265625 -8.71875 C 2.859375 -8.71875 3.320312 -8.53125 3.65625 -8.15625 C 3.988281 -7.789062 4.15625 -7.289062 4.15625 -6.65625 Z M 1.125 -12.125 C 1.457031 -12.3125 1.890625 -12.40625 2.421875 -12.40625 C 2.960938 -12.40625 3.382812 -12.3125 3.6875 -12.125 C 3.832031 -11.8125 3.90625 -11.476562 3.90625 -11.125 C 3.90625 -10.769531 3.832031 -10.4375 3.6875 -10.125 C 3.351562 -9.945312 2.914062 -9.859375 2.375 -9.859375 C 1.832031 -9.859375 1.414062 -9.945312 1.125 -10.125 C 0.988281 -10.4375 0.921875 -10.769531 0.921875 -11.125 C 0.921875 -11.476562 0.988281 -11.8125 1.125 -12.125 Z M 1.125 -12.125 "/></g></g></g><g fill="rgb(0%, 0%, 0%)" fill-opacity="1"><g transform="translate(75.028033, 40.11769)"><g><path d="M 5.625 2.109375 L 5.625 -0.484375 C 5.03125 -0.046875 4.378906 0.171875 3.671875 0.171875 C 2.640625 0.171875 1.859375 -0.234375 1.328125 -1.046875 C 0.804688 -1.859375 0.546875 -2.960938 0.546875 -4.359375 C 0.546875 -5.066406 0.640625 -5.703125 0.828125 -6.265625 C 1.015625 -6.828125 1.257812 -7.300781 1.5625 -7.6875 C 1.875 -8.082031 2.234375 -8.382812 2.640625 -8.59375 C 3.046875 -8.800781 3.476562 -8.90625 3.9375 -8.90625 C 4.875 -8.90625 5.660156 -8.640625 6.296875 -8.109375 C 6.691406 -8.546875 7.238281 -8.769531 7.9375 -8.78125 C 8.019531 -8.71875 8.101562 -8.632812 8.1875 -8.53125 C 8.269531 -8.425781 8.347656 -8.304688 8.421875 -8.171875 C 8.503906 -8.046875 8.570312 -7.914062 8.625 -7.78125 C 8.6875 -7.644531 8.726562 -7.519531 8.75 -7.40625 C 8.425781 -7.15625 8.265625 -6.738281 8.265625 -6.15625 L 8.265625 3.625 L 8.140625 3.75 L 7.09375 3.75 C 6.5625 3.75 6.179688 3.625 5.953125 3.375 C 5.734375 3.132812 5.625 2.710938 5.625 2.109375 Z M 4.34375 -2.015625 C 4.820312 -2.015625 5.25 -2.203125 5.625 -2.578125 L 5.625 -6.328125 C 5.207031 -6.703125 4.832031 -6.890625 4.5 -6.890625 C 3.71875 -6.890625 3.328125 -6.023438 3.328125 -4.296875 C 3.328125 -2.773438 3.664062 -2.015625 4.34375 -2.015625 Z M 4.34375 -2.015625 "/></g></g></g><g fill="rgb(0%, 0%, 0%)" fill-opacity="1"><g transform="translate(84.536893, 40.11769)"><g><path d="M 0.984375 -2.921875 L 0.984375 -6.484375 C 0.984375 -7.234375 0.847656 -7.8125 0.578125 -8.21875 C 1.003906 -8.59375 1.519531 -8.78125 2.125 -8.78125 C 2.738281 -8.78125 3.15625 -8.640625 3.375 -8.359375 C 3.59375 -8.085938 3.703125 -7.671875 3.703125 -7.109375 L 3.703125 -3.4375 C 3.703125 -3.03125 3.75 -2.734375 3.84375 -2.546875 C 3.9375 -2.359375 4.179688 -2.265625 4.578125 -2.265625 C 4.953125 -2.265625 5.335938 -2.460938 5.734375 -2.859375 L 5.734375 -8.640625 C 6.117188 -8.710938 6.5625 -8.75 7.0625 -8.75 C 7.570312 -8.75 8.03125 -8.710938 8.4375 -8.640625 L 8.4375 -2.484375 C 8.4375 -1.859375 8.597656 -1.4375 8.921875 -1.21875 C 8.867188 -0.976562 8.757812 -0.722656 8.59375 -0.453125 C 8.4375 -0.179688 8.269531 0.015625 8.09375 0.140625 C 7.144531 0.109375 6.460938 -0.296875 6.046875 -1.078125 C 5.128906 -0.253906 4.269531 0.15625 3.46875 0.15625 C 2.65625 0.15625 2.035156 -0.125 1.609375 -0.6875 C 1.191406 -1.25 0.984375 -1.992188 0.984375 -2.921875 Z M 0.984375 -2.921875 "/></g></g></g><g fill="rgb(0%, 0%, 0%)" fill-opacity="1"><g transform="translate(94.218956, 40.11769)"><g><path d="M 7.78125 -3.453125 L 3.25 -3.453125 C 3.28125 -2.929688 3.414062 -2.523438 3.65625 -2.234375 C 3.894531 -1.941406 4.296875 -1.796875 4.859375 -1.796875 C 5.128906 -1.796875 5.445312 -1.835938 5.8125 -1.921875 C 6.175781 -2.003906 6.59375 -2.140625 7.0625 -2.328125 C 7.445312 -1.929688 7.6875 -1.398438 7.78125 -0.734375 C 6.851562 -0.0664062 5.722656 0.265625 4.390625 0.265625 C 3.660156 0.265625 3.046875 0.148438 2.546875 -0.078125 C 2.054688 -0.316406 1.660156 -0.644531 1.359375 -1.0625 C 1.054688 -1.476562 0.835938 -1.96875 0.703125 -2.53125 C 0.578125 -3.09375 0.515625 -3.710938 0.515625 -4.390625 C 0.515625 -5.035156 0.59375 -5.628906 0.75 -6.171875 C 0.90625 -6.722656 1.140625 -7.203125 1.453125 -7.609375 C 1.773438 -8.015625 2.179688 -8.332031 2.671875 -8.5625 C 3.160156 -8.789062 3.738281 -8.90625 4.40625 -8.90625 C 4.957031 -8.90625 5.453125 -8.8125 5.890625 -8.625 C 6.335938 -8.445312 6.71875 -8.191406 7.03125 -7.859375 C 7.34375 -7.535156 7.582031 -7.148438 7.75 -6.703125 C 7.914062 -6.253906 8 -5.765625 8 -5.234375 C 8 -4.523438 7.925781 -3.929688 7.78125 -3.453125 Z M 3.234375 -5.3125 L 5.53125 -5.3125 L 5.53125 -5.515625 C 5.53125 -5.941406 5.429688 -6.289062 5.234375 -6.5625 C 5.046875 -6.84375 4.765625 -6.984375 4.390625 -6.984375 C 4.015625 -6.984375 3.738281 -6.851562 3.5625 -6.59375 C 3.382812 -6.332031 3.273438 -5.90625 3.234375 -5.3125 Z M 3.234375 -5.3125 "/></g></g></g><g fill="rgb(0%, 0%, 0%)" fill-opacity="1"><g transform="translate(103.000369, 40.11769)"><g><path d="M 0.34375 -0.59375 C 0.351562 -0.894531 0.429688 -1.222656 0.578125 -1.578125 C 0.722656 -1.929688 0.894531 -2.210938 1.09375 -2.421875 C 2.019531 -1.941406 2.820312 -1.703125 3.5 -1.703125 C 3.820312 -1.703125 4.066406 -1.753906 4.234375 -1.859375 C 4.410156 -1.972656 4.5 -2.117188 4.5 -2.296875 C 4.5 -2.648438 4.234375 -2.910156 3.703125 -3.078125 L 2.75 -3.453125 C 1.3125 -3.984375 0.59375 -4.847656 0.59375 -6.046875 C 0.59375 -6.921875 0.894531 -7.613281 1.5 -8.125 C 2.101562 -8.644531 2.921875 -8.90625 3.953125 -8.90625 C 4.460938 -8.90625 5.019531 -8.832031 5.625 -8.6875 C 6.238281 -8.539062 6.742188 -8.367188 7.140625 -8.171875 C 7.160156 -7.847656 7.09375 -7.492188 6.9375 -7.109375 C 6.789062 -6.722656 6.609375 -6.453125 6.390625 -6.296875 C 5.421875 -6.734375 4.613281 -6.953125 3.96875 -6.953125 C 3.738281 -6.953125 3.5625 -6.898438 3.4375 -6.796875 C 3.3125 -6.691406 3.25 -6.554688 3.25 -6.390625 C 3.25 -6.117188 3.472656 -5.898438 3.921875 -5.734375 L 4.984375 -5.359375 C 6.523438 -4.816406 7.296875 -3.882812 7.296875 -2.5625 C 7.296875 -1.695312 6.976562 -1.007812 6.34375 -0.5 C 5.707031 0.0078125 4.800781 0.265625 3.625 0.265625 C 2.445312 0.265625 1.351562 -0.0195312 0.34375 -0.59375 Z M 0.34375 -0.59375 "/></g></g></g></svg>