<svg xmlns="http://www.w3.org/2000/svg" xmlns:xlink="http://www.w3.org/1999/xlink" width="150" zoomAndPan="magnify" viewBox="0 0 112.5 48.75" height="65" preserveAspectRatio="xMidYMid meet" version="1.0"><defs><clipPath id="id1"><path d="M 0.0390625 0 L 111.964844 0 L 111.964844 48.5 L 0.0390625 48.5 Z M 0.0390625 0 " clip-rule="nonzero"/></clipPath><clipPath id="id2"><path d="M 0.0390625 14 L 80 14 L 80 35 L 0.0390625 35 Z M 0.0390625 14 " clip-rule="nonzero"/></clipPath><clipPath id="id3"><path d="M 83 10.050781 L 111.964844 10.050781 L 111.964844 38.53125 L 83 38.53125 Z M 83 10.050781 " clip-rule="nonzero"/></clipPath></defs><g clip-path="url(#id1)"><path fill="rgb(100%, 100%, 100%)" d="M 0.0390625 0 L 112.460938 0 L 112.460938 48.71875 L 0.0390625 48.71875 Z M 0.0390625 0 " fill-opacity="1" fill-rule="nonzero"/><path fill="rgb(100%, 100%, 100%)" d="M 0.0390625 0 L 112.460938 0 L 112.460938 48.71875 L 0.0390625 48.71875 Z M 0.0390625 0 " fill-opacity="1" fill-rule="nonzero"/><path fill="rgb(100%, 100%, 100%)" d="M 0.0390625 0 L 112.460938 0 L 112.460938 48.71875 L 0.0390625 48.71875 Z M 0.0390625 0 " fill-opacity="1" fill-rule="nonzero"/></g><g clip-path="url(#id2)"><path fill="rgb(0%, 0%, 0%)" d="M 12.550781 30.242188 L 12.550781 34.28125 L 0.015625 34.28125 L 0.015625 14.300781 L 4.410156 14.300781 L 4.410156 30.242188 Z M 14.492188 20.730469 L 18.71875 20.730469 L 18.71875 34.277344 L 14.492188 34.277344 Z M 16.605469 14 C 16.929688 14 17.242188 14.0625 17.542969 14.1875 C 17.84375 14.308594 18.109375 14.484375 18.339844 14.714844 C 18.570312 14.941406 18.746094 15.207031 18.871094 15.507812 C 18.996094 15.804688 19.058594 16.117188 19.058594 16.4375 C 19.058594 17.789062 17.957031 18.878906 16.605469 18.878906 C 15.25 18.878906 14.15625 17.789062 14.15625 16.4375 C 14.15625 16.117188 14.21875 15.804688 14.34375 15.507812 C 14.46875 15.207031 14.644531 14.945312 14.875 14.714844 C 15.101562 14.488281 15.367188 14.308594 15.667969 14.1875 C 15.96875 14.0625 16.28125 14 16.605469 14 M 45.390625 20.730469 L 50.5625 20.730469 L 45.019531 26.992188 L 50.449219 34.277344 L 45.140625 34.277344 L 40.65625 27.585938 L 40.601562 27.585938 L 40.601562 34.277344 L 36.378906 34.277344 L 36.378906 14.300781 L 40.601562 14.300781 L 40.601562 26.238281 Z M 21.054688 20.738281 L 25.113281 20.738281 L 25.113281 22.59375 L 25.167969 22.59375 C 25.730469 21.527344 27.109375 20.40625 29.167969 20.40625 C 33.449219 20.40625 34.238281 23.210938 34.238281 26.855469 L 34.238281 34.277344 L 30.011719 34.277344 L 30.011719 27.691406 C 30.011719 26.121094 29.984375 24.101562 27.8125 24.101562 C 25.617188 24.101562 25.28125 25.8125 25.28125 27.578125 L 25.28125 34.273438 L 21.054688 34.273438 Z M 59.464844 25.929688 C 59.492188 24.527344 58.394531 23.351562 56.871094 23.351562 C 55.011719 23.351562 53.996094 24.613281 53.886719 25.929688 Z M 63.039062 31.929688 C 61.6875 33.640625 59.464844 34.621094 57.261719 34.621094 C 53.035156 34.621094 49.65625 31.816406 49.65625 27.472656 C 49.65625 23.125 53.035156 20.324219 57.261719 20.324219 C 61.207031 20.324219 63.683594 23.128906 63.683594 27.472656 L 63.683594 28.789062 L 53.882812 28.789062 C 54.21875 30.386719 55.429688 31.425781 57.066406 31.425781 C 58.445312 31.425781 59.375 30.726562 60.078125 29.769531 Z M 72.488281 24.007812 C 70.378906 24.007812 69.109375 25.410156 69.109375 27.457031 C 69.109375 29.507812 70.378906 30.90625 72.488281 30.90625 C 74.601562 30.90625 75.871094 29.507812 75.871094 27.457031 C 75.871094 25.410156 74.601562 24.007812 72.488281 24.007812 M 79.757812 34.273438 L 75.871094 34.273438 L 75.871094 32.476562 L 75.816406 32.476562 C 75.167969 33.457031 73.535156 34.609375 71.617188 34.609375 C 67.558594 34.609375 64.886719 31.691406 64.886719 27.570312 C 64.886719 23.785156 67.25 20.304688 71.136719 20.304688 C 72.886719 20.304688 74.519531 20.78125 75.472656 22.101562 L 75.527344 22.101562 L 75.527344 14.300781 L 79.753906 14.300781 Z M 79.757812 34.273438 " fill-opacity="1" fill-rule="nonzero"/></g><g clip-path="url(#id3)"><path fill="rgb(0.389099%, 46.669006%, 70.979309%)" d="M 110.375 10.105469 L 86.089844 10.105469 C 84.921875 10.105469 83.984375 11.019531 83.984375 12.148438 L 83.984375 36.429688 C 83.984375 37.558594 84.929688 38.472656 86.089844 38.472656 L 110.375 38.472656 C 111.539062 38.472656 112.484375 37.558594 112.484375 36.429688 L 112.484375 12.148438 C 112.484375 11.019531 111.539062 10.105469 110.371094 10.105469 Z M 110.375 10.105469 " fill-opacity="1" fill-rule="nonzero"/></g><path fill="rgb(100%, 100%, 100%)" d="M 88.210938 20.742188 L 92.441406 20.742188 L 92.441406 34.28125 L 88.210938 34.28125 Z M 90.328125 14.011719 C 90.652344 14.011719 90.964844 14.074219 91.265625 14.195312 C 91.5625 14.320312 91.828125 14.496094 92.058594 14.726562 C 92.289062 14.953125 92.464844 15.21875 92.589844 15.515625 C 92.714844 15.816406 92.777344 16.125 92.777344 16.449219 C 92.777344 16.773438 92.714844 17.085938 92.589844 17.382812 C 92.464844 17.683594 92.289062 17.945312 92.058594 18.175781 C 91.828125 18.402344 91.566406 18.578125 91.265625 18.703125 C 90.964844 18.828125 90.652344 18.890625 90.328125 18.890625 C 90 18.890625 89.6875 18.828125 89.390625 18.703125 C 89.089844 18.582031 88.824219 18.402344 88.59375 18.175781 C 88.363281 17.945312 88.1875 17.683594 88.0625 17.382812 C 87.9375 17.085938 87.875 16.773438 87.875 16.449219 C 87.875 16.125 87.9375 15.816406 88.0625 15.515625 C 88.1875 15.21875 88.363281 14.953125 88.59375 14.726562 C 88.824219 14.496094 89.089844 14.320312 89.390625 14.195312 C 89.6875 14.074219 90.003906 14.011719 90.328125 14.011719 M 95.089844 20.742188 L 99.144531 20.742188 L 99.144531 22.585938 L 99.199219 22.585938 C 99.757812 21.523438 101.144531 20.398438 103.199219 20.398438 C 107.480469 20.398438 108.269531 23.203125 108.269531 26.847656 L 108.269531 34.273438 L 104.042969 34.273438 L 104.042969 27.6875 C 104.042969 26.117188 104.015625 24.097656 101.847656 24.097656 C 99.644531 24.097656 99.308594 25.808594 99.308594 27.574219 L 99.308594 34.269531 L 95.085938 34.269531 L 95.085938 20.730469 Z M 95.089844 20.742188 " fill-opacity="1" fill-rule="nonzero"/></svg>